<mxfile host="app.diagrams.net" agent="Mozilla/5.0 (Windows NT 10.0; Win64; x64) AppleWebKit/537.36 (KHTML, like Gecko) Chrome/137.0.0.0 Safari/537.36" version="27.1.3">
  <diagram name="Página-1" id="d-FLpCfQA90O5r3EKDv3">
    <mxGraphModel grid="1" page="1" gridSize="10" guides="1" tooltips="1" connect="1" arrows="1" fold="1" pageScale="1" pageWidth="827" pageHeight="1169" math="0" shadow="0">
      <root>
        <mxCell id="0" />
        <mxCell id="1" parent="0" />
        <mxCell id="E-HVPZ_XiQ3oLohTgyyg-22" value="" style="rounded=0;whiteSpace=wrap;html=1;fillColor=#1ba1e2;fontColor=#ffffff;strokeColor=#006EAF;" vertex="1" parent="1">
          <mxGeometry x="110" y="120" width="510" height="1030" as="geometry" />
        </mxCell>
        <mxCell id="E-HVPZ_XiQ3oLohTgyyg-9" style="edgeStyle=orthogonalEdgeStyle;rounded=0;orthogonalLoop=1;jettySize=auto;html=1;exitX=0.5;exitY=0.5;exitDx=0;exitDy=0;exitPerimeter=0;entryX=0;entryY=0.5;entryDx=0;entryDy=0;" edge="1" parent="1" source="E-HVPZ_XiQ3oLohTgyyg-2" target="E-HVPZ_XiQ3oLohTgyyg-4">
          <mxGeometry relative="1" as="geometry">
            <Array as="points">
              <mxPoint x="140" y="320" />
              <mxPoint x="140" y="250" />
            </Array>
          </mxGeometry>
        </mxCell>
        <mxCell id="E-HVPZ_XiQ3oLohTgyyg-2" value="Cliente" style="shape=umlActor;verticalLabelPosition=bottom;verticalAlign=top;html=1;" vertex="1" parent="1">
          <mxGeometry x="40" y="290" width="30" height="60" as="geometry" />
        </mxCell>
        <mxCell id="E-HVPZ_XiQ3oLohTgyyg-10" style="edgeStyle=orthogonalEdgeStyle;rounded=0;orthogonalLoop=1;jettySize=auto;html=1;exitX=1;exitY=0.5;exitDx=0;exitDy=0;entryX=0;entryY=0.5;entryDx=0;entryDy=0;" edge="1" parent="1" source="E-HVPZ_XiQ3oLohTgyyg-4" target="E-HVPZ_XiQ3oLohTgyyg-5">
          <mxGeometry relative="1" as="geometry">
            <Array as="points">
              <mxPoint x="310" y="250" />
              <mxPoint x="310" y="250" />
            </Array>
          </mxGeometry>
        </mxCell>
        <mxCell id="E-HVPZ_XiQ3oLohTgyyg-13" value="&lt;font style=&quot;font-size: 8px;&quot;&gt;&amp;lt;&amp;lt;include&amp;gt;&amp;gt;&lt;/font&gt;" style="edgeLabel;html=1;align=center;verticalAlign=middle;resizable=0;points=[];" connectable="0" vertex="1" parent="E-HVPZ_XiQ3oLohTgyyg-10">
          <mxGeometry x="0.3133" y="-2" relative="1" as="geometry">
            <mxPoint as="offset" />
          </mxGeometry>
        </mxCell>
        <mxCell id="E-HVPZ_XiQ3oLohTgyyg-4" value="Comprar producto" style="ellipse;whiteSpace=wrap;html=1;" vertex="1" parent="1">
          <mxGeometry x="180" y="230" width="80" height="40" as="geometry" />
        </mxCell>
        <mxCell id="E-HVPZ_XiQ3oLohTgyyg-5" value="&lt;font style=&quot;font-size: 10px;&quot;&gt;Dejar comentarios&lt;/font&gt;" style="ellipse;whiteSpace=wrap;html=1;" vertex="1" parent="1">
          <mxGeometry x="380" y="230" width="80" height="40" as="geometry" />
        </mxCell>
        <mxCell id="E-HVPZ_XiQ3oLohTgyyg-6" value="&lt;font style=&quot;font-size: 10px;&quot;&gt;Realizar valoración&lt;/font&gt;" style="ellipse;whiteSpace=wrap;html=1;" vertex="1" parent="1">
          <mxGeometry x="380" y="280" width="80" height="40" as="geometry" />
        </mxCell>
        <mxCell id="E-HVPZ_XiQ3oLohTgyyg-8" value="&lt;font style=&quot;font-size: 10px;&quot;&gt;Contactar vendedor&lt;/font&gt;" style="ellipse;whiteSpace=wrap;html=1;" vertex="1" parent="1">
          <mxGeometry x="380" y="330" width="80" height="40" as="geometry" />
        </mxCell>
        <mxCell id="E-HVPZ_XiQ3oLohTgyyg-11" value="" style="endArrow=classic;html=1;rounded=0;entryX=0;entryY=0.5;entryDx=0;entryDy=0;" edge="1" parent="1" target="E-HVPZ_XiQ3oLohTgyyg-8">
          <mxGeometry width="50" height="50" relative="1" as="geometry">
            <mxPoint x="300" y="250" as="sourcePoint" />
            <mxPoint x="340" y="280" as="targetPoint" />
            <Array as="points">
              <mxPoint x="300" y="350" />
            </Array>
          </mxGeometry>
        </mxCell>
        <mxCell id="E-HVPZ_XiQ3oLohTgyyg-15" value="&lt;font style=&quot;font-size: 8px;&quot;&gt;&amp;lt;&amp;lt;Extend&amp;gt;&amp;gt;&lt;/font&gt;" style="edgeLabel;html=1;align=center;verticalAlign=middle;resizable=0;points=[];" connectable="0" vertex="1" parent="E-HVPZ_XiQ3oLohTgyyg-11">
          <mxGeometry x="0.5227" relative="1" as="geometry">
            <mxPoint as="offset" />
          </mxGeometry>
        </mxCell>
        <mxCell id="E-HVPZ_XiQ3oLohTgyyg-12" value="" style="endArrow=classic;html=1;rounded=0;entryX=0;entryY=0.5;entryDx=0;entryDy=0;" edge="1" parent="1" target="E-HVPZ_XiQ3oLohTgyyg-6">
          <mxGeometry width="50" height="50" relative="1" as="geometry">
            <mxPoint x="300" y="300" as="sourcePoint" />
            <mxPoint x="300" y="310" as="targetPoint" />
          </mxGeometry>
        </mxCell>
        <mxCell id="E-HVPZ_XiQ3oLohTgyyg-14" value="&lt;font style=&quot;font-size: 8px;&quot;&gt;&amp;lt;&amp;lt;Extend&amp;gt;&amp;gt;&lt;/font&gt;" style="edgeLabel;html=1;align=center;verticalAlign=middle;resizable=0;points=[];" connectable="0" vertex="1" parent="E-HVPZ_XiQ3oLohTgyyg-12">
          <mxGeometry x="-0.0193" y="1" relative="1" as="geometry">
            <mxPoint as="offset" />
          </mxGeometry>
        </mxCell>
        <mxCell id="E-HVPZ_XiQ3oLohTgyyg-16" value="&lt;font style=&quot;font-size: 10px;&quot;&gt;Consultar detalles del producto&lt;/font&gt;" style="ellipse;whiteSpace=wrap;html=1;" vertex="1" parent="1">
          <mxGeometry x="175" y="290" width="90" height="40" as="geometry" />
        </mxCell>
        <mxCell id="E-HVPZ_XiQ3oLohTgyyg-17" value="&lt;font style=&quot;font-size: 10px;&quot;&gt;Iniciar sesión&lt;/font&gt;" style="ellipse;whiteSpace=wrap;html=1;" vertex="1" parent="1">
          <mxGeometry x="175" y="350" width="90" height="40" as="geometry" />
        </mxCell>
        <mxCell id="E-HVPZ_XiQ3oLohTgyyg-18" value="&lt;font style=&quot;font-size: 10px;&quot;&gt;Registrarse&lt;/font&gt;" style="ellipse;whiteSpace=wrap;html=1;" vertex="1" parent="1">
          <mxGeometry x="175" y="410" width="90" height="40" as="geometry" />
        </mxCell>
        <mxCell id="E-HVPZ_XiQ3oLohTgyyg-19" value="" style="endArrow=classic;html=1;rounded=0;entryX=0;entryY=0.5;entryDx=0;entryDy=0;" edge="1" parent="1" target="E-HVPZ_XiQ3oLohTgyyg-16">
          <mxGeometry width="50" height="50" relative="1" as="geometry">
            <mxPoint x="140" y="310" as="sourcePoint" />
            <mxPoint x="200" y="300" as="targetPoint" />
          </mxGeometry>
        </mxCell>
        <mxCell id="E-HVPZ_XiQ3oLohTgyyg-20" value="" style="endArrow=classic;html=1;rounded=0;entryX=0;entryY=0.5;entryDx=0;entryDy=0;" edge="1" parent="1" target="E-HVPZ_XiQ3oLohTgyyg-18">
          <mxGeometry width="50" height="50" relative="1" as="geometry">
            <mxPoint x="140" y="320" as="sourcePoint" />
            <mxPoint x="190" y="320" as="targetPoint" />
            <Array as="points">
              <mxPoint x="140" y="430" />
            </Array>
          </mxGeometry>
        </mxCell>
        <mxCell id="E-HVPZ_XiQ3oLohTgyyg-21" value="" style="endArrow=classic;html=1;rounded=0;entryX=0;entryY=0.5;entryDx=0;entryDy=0;" edge="1" parent="1" target="E-HVPZ_XiQ3oLohTgyyg-17">
          <mxGeometry width="50" height="50" relative="1" as="geometry">
            <mxPoint x="140" y="370" as="sourcePoint" />
            <mxPoint x="170" y="380" as="targetPoint" />
          </mxGeometry>
        </mxCell>
        <mxCell id="E-HVPZ_XiQ3oLohTgyyg-28" style="edgeStyle=orthogonalEdgeStyle;rounded=0;orthogonalLoop=1;jettySize=auto;html=1;exitX=0.5;exitY=0.5;exitDx=0;exitDy=0;exitPerimeter=0;entryX=1;entryY=0.5;entryDx=0;entryDy=0;" edge="1" parent="1" source="E-HVPZ_XiQ3oLohTgyyg-26" target="E-HVPZ_XiQ3oLohTgyyg-27">
          <mxGeometry relative="1" as="geometry" />
        </mxCell>
        <mxCell id="tyaoGvJQlUnHLwAUHPKU-8" style="edgeStyle=orthogonalEdgeStyle;rounded=0;orthogonalLoop=1;jettySize=auto;html=1;exitX=0.5;exitY=0.5;exitDx=0;exitDy=0;exitPerimeter=0;entryX=0.5;entryY=0;entryDx=0;entryDy=0;" edge="1" parent="1" source="E-HVPZ_XiQ3oLohTgyyg-26" target="E-HVPZ_XiQ3oLohTgyyg-42">
          <mxGeometry relative="1" as="geometry">
            <Array as="points">
              <mxPoint x="580" y="590" />
              <mxPoint x="580" y="760" />
              <mxPoint x="505" y="760" />
            </Array>
          </mxGeometry>
        </mxCell>
        <mxCell id="E-HVPZ_XiQ3oLohTgyyg-26" value="Administrador" style="shape=umlActor;verticalLabelPosition=bottom;verticalAlign=top;html=1;outlineConnect=0;" vertex="1" parent="1">
          <mxGeometry x="690" y="560" width="30" height="60" as="geometry" />
        </mxCell>
        <mxCell id="E-HVPZ_XiQ3oLohTgyyg-33" style="edgeStyle=orthogonalEdgeStyle;rounded=0;orthogonalLoop=1;jettySize=auto;html=1;exitX=0;exitY=0.5;exitDx=0;exitDy=0;entryX=1;entryY=0.5;entryDx=0;entryDy=0;" edge="1" parent="1" source="E-HVPZ_XiQ3oLohTgyyg-27" target="E-HVPZ_XiQ3oLohTgyyg-29">
          <mxGeometry relative="1" as="geometry">
            <Array as="points">
              <mxPoint x="440" y="590" />
              <mxPoint x="440" y="515" />
            </Array>
          </mxGeometry>
        </mxCell>
        <mxCell id="E-HVPZ_XiQ3oLohTgyyg-40" value="&amp;lt;&amp;lt;Include&amp;gt;&amp;gt;" style="edgeLabel;html=1;align=center;verticalAlign=middle;resizable=0;points=[];" connectable="0" vertex="1" parent="E-HVPZ_XiQ3oLohTgyyg-33">
          <mxGeometry x="0.5101" y="-1" relative="1" as="geometry">
            <mxPoint as="offset" />
          </mxGeometry>
        </mxCell>
        <mxCell id="E-HVPZ_XiQ3oLohTgyyg-34" style="edgeStyle=orthogonalEdgeStyle;rounded=0;orthogonalLoop=1;jettySize=auto;html=1;exitX=0;exitY=0.5;exitDx=0;exitDy=0;entryX=1;entryY=0.5;entryDx=0;entryDy=0;" edge="1" parent="1" source="E-HVPZ_XiQ3oLohTgyyg-27" target="E-HVPZ_XiQ3oLohTgyyg-30">
          <mxGeometry relative="1" as="geometry" />
        </mxCell>
        <mxCell id="E-HVPZ_XiQ3oLohTgyyg-39" value="&amp;lt;&amp;lt;Include&amp;gt;&amp;gt;" style="edgeLabel;html=1;align=center;verticalAlign=middle;resizable=0;points=[];" connectable="0" vertex="1" parent="E-HVPZ_XiQ3oLohTgyyg-34">
          <mxGeometry x="0.2516" y="-1" relative="1" as="geometry">
            <mxPoint as="offset" />
          </mxGeometry>
        </mxCell>
        <mxCell id="E-HVPZ_XiQ3oLohTgyyg-27" value="Gestionar inventario" style="ellipse;whiteSpace=wrap;html=1;" vertex="1" parent="1">
          <mxGeometry x="450" y="560" width="90" height="60" as="geometry" />
        </mxCell>
        <mxCell id="E-HVPZ_XiQ3oLohTgyyg-29" value="Añadir productos" style="ellipse;whiteSpace=wrap;html=1;" vertex="1" parent="1">
          <mxGeometry x="190" y="490" width="85" height="50" as="geometry" />
        </mxCell>
        <mxCell id="E-HVPZ_XiQ3oLohTgyyg-30" value="Editar productos" style="ellipse;whiteSpace=wrap;html=1;" vertex="1" parent="1">
          <mxGeometry x="190" y="565" width="85" height="50" as="geometry" />
        </mxCell>
        <mxCell id="E-HVPZ_XiQ3oLohTgyyg-31" value="Eliminar productos" style="ellipse;whiteSpace=wrap;html=1;" vertex="1" parent="1">
          <mxGeometry x="190" y="630" width="85" height="50" as="geometry" />
        </mxCell>
        <mxCell id="E-HVPZ_XiQ3oLohTgyyg-32" value="Generar reportes" style="ellipse;whiteSpace=wrap;html=1;" vertex="1" parent="1">
          <mxGeometry x="190" y="700" width="85" height="50" as="geometry" />
        </mxCell>
        <mxCell id="E-HVPZ_XiQ3oLohTgyyg-35" value="" style="endArrow=classic;html=1;rounded=0;entryX=1;entryY=0.5;entryDx=0;entryDy=0;" edge="1" parent="1" target="E-HVPZ_XiQ3oLohTgyyg-31">
          <mxGeometry width="50" height="50" relative="1" as="geometry">
            <mxPoint x="440" y="590" as="sourcePoint" />
            <mxPoint x="430" y="650" as="targetPoint" />
            <Array as="points">
              <mxPoint x="440" y="655" />
            </Array>
          </mxGeometry>
        </mxCell>
        <mxCell id="E-HVPZ_XiQ3oLohTgyyg-38" value="&amp;lt;&amp;lt;Include&amp;gt;&amp;gt;" style="edgeLabel;html=1;align=center;verticalAlign=middle;resizable=0;points=[];" connectable="0" vertex="1" parent="E-HVPZ_XiQ3oLohTgyyg-35">
          <mxGeometry x="0.3176" y="2" relative="1" as="geometry">
            <mxPoint as="offset" />
          </mxGeometry>
        </mxCell>
        <mxCell id="E-HVPZ_XiQ3oLohTgyyg-36" value="" style="endArrow=classic;html=1;rounded=0;entryX=1;entryY=0.5;entryDx=0;entryDy=0;" edge="1" parent="1" target="E-HVPZ_XiQ3oLohTgyyg-32">
          <mxGeometry width="50" height="50" relative="1" as="geometry">
            <mxPoint x="440" y="650" as="sourcePoint" />
            <mxPoint x="430" y="730" as="targetPoint" />
            <Array as="points">
              <mxPoint x="440" y="725" />
            </Array>
          </mxGeometry>
        </mxCell>
        <mxCell id="E-HVPZ_XiQ3oLohTgyyg-37" value="&amp;lt;&amp;lt;Extend&amp;gt;&amp;gt;" style="edgeLabel;html=1;align=center;verticalAlign=middle;resizable=0;points=[];" connectable="0" vertex="1" parent="E-HVPZ_XiQ3oLohTgyyg-36">
          <mxGeometry x="0.3463" y="3" relative="1" as="geometry">
            <mxPoint as="offset" />
          </mxGeometry>
        </mxCell>
        <mxCell id="tyaoGvJQlUnHLwAUHPKU-2" style="edgeStyle=orthogonalEdgeStyle;rounded=0;orthogonalLoop=1;jettySize=auto;html=1;exitX=0;exitY=0.5;exitDx=0;exitDy=0;entryX=1;entryY=0.5;entryDx=0;entryDy=0;" edge="1" parent="1" source="E-HVPZ_XiQ3oLohTgyyg-42" target="E-HVPZ_XiQ3oLohTgyyg-43">
          <mxGeometry relative="1" as="geometry" />
        </mxCell>
        <mxCell id="tyaoGvJQlUnHLwAUHPKU-7" value="&amp;lt;&amp;lt;Include&amp;gt;&amp;gt;" style="edgeLabel;html=1;align=center;verticalAlign=middle;resizable=0;points=[];" connectable="0" vertex="1" parent="tyaoGvJQlUnHLwAUHPKU-2">
          <mxGeometry x="-0.0769" y="-2" relative="1" as="geometry">
            <mxPoint as="offset" />
          </mxGeometry>
        </mxCell>
        <mxCell id="tyaoGvJQlUnHLwAUHPKU-3" style="edgeStyle=orthogonalEdgeStyle;rounded=0;orthogonalLoop=1;jettySize=auto;html=1;exitX=0;exitY=1;exitDx=0;exitDy=0;entryX=1;entryY=0.5;entryDx=0;entryDy=0;" edge="1" parent="1" source="E-HVPZ_XiQ3oLohTgyyg-42" target="E-HVPZ_XiQ3oLohTgyyg-44">
          <mxGeometry relative="1" as="geometry">
            <Array as="points">
              <mxPoint x="466" y="930" />
            </Array>
          </mxGeometry>
        </mxCell>
        <mxCell id="tyaoGvJQlUnHLwAUHPKU-6" value="&amp;lt;&amp;lt;Include&amp;gt;&amp;gt;" style="edgeLabel;html=1;align=center;verticalAlign=middle;resizable=0;points=[];" connectable="0" vertex="1" parent="tyaoGvJQlUnHLwAUHPKU-3">
          <mxGeometry x="0.3764" y="-3" relative="1" as="geometry">
            <mxPoint as="offset" />
          </mxGeometry>
        </mxCell>
        <mxCell id="tyaoGvJQlUnHLwAUHPKU-4" style="edgeStyle=orthogonalEdgeStyle;rounded=0;orthogonalLoop=1;jettySize=auto;html=1;exitX=0.5;exitY=1;exitDx=0;exitDy=0;entryX=1;entryY=0.5;entryDx=0;entryDy=0;" edge="1" parent="1" source="E-HVPZ_XiQ3oLohTgyyg-42" target="E-HVPZ_XiQ3oLohTgyyg-45">
          <mxGeometry relative="1" as="geometry" />
        </mxCell>
        <mxCell id="tyaoGvJQlUnHLwAUHPKU-5" value="&amp;lt;&amp;lt;Extend&amp;gt;&amp;gt;" style="edgeLabel;html=1;align=center;verticalAlign=middle;resizable=0;points=[];" connectable="0" vertex="1" parent="tyaoGvJQlUnHLwAUHPKU-4">
          <mxGeometry x="0.4725" y="-2" relative="1" as="geometry">
            <mxPoint as="offset" />
          </mxGeometry>
        </mxCell>
        <mxCell id="E-HVPZ_XiQ3oLohTgyyg-42" value="&lt;font style=&quot;font-size: 11px;&quot;&gt;Gestionar usuarios y pedidos&lt;/font&gt;" style="ellipse;whiteSpace=wrap;html=1;" vertex="1" parent="1">
          <mxGeometry x="450" y="810" width="110" height="60" as="geometry" />
        </mxCell>
        <mxCell id="E-HVPZ_XiQ3oLohTgyyg-43" value="&lt;font style=&quot;font-size: 11px;&quot;&gt;Notificar el estado del pedido&lt;/font&gt;" style="ellipse;whiteSpace=wrap;html=1;" vertex="1" parent="1">
          <mxGeometry x="220" y="810" width="100" height="60" as="geometry" />
        </mxCell>
        <mxCell id="E-HVPZ_XiQ3oLohTgyyg-44" value="&lt;font style=&quot;font-size: 11px;&quot;&gt;Verificar disponibilidad&lt;/font&gt;" style="ellipse;whiteSpace=wrap;html=1;" vertex="1" parent="1">
          <mxGeometry x="220" y="900" width="100" height="60" as="geometry" />
        </mxCell>
        <mxCell id="E-HVPZ_XiQ3oLohTgyyg-45" value="&lt;font style=&quot;font-size: 11px;&quot;&gt;Autenticación&lt;/font&gt;" style="ellipse;whiteSpace=wrap;html=1;" vertex="1" parent="1">
          <mxGeometry x="220" y="1000" width="100" height="60" as="geometry" />
        </mxCell>
        <mxCell id="n463iB97ynrEq2ldRU0D-2" value="TIENDA SIRO" style="text;html=1;align=center;verticalAlign=middle;whiteSpace=wrap;rounded=0;fontSize=17;" vertex="1" parent="1">
          <mxGeometry x="307.5" y="130" width="115" height="30" as="geometry" />
        </mxCell>
      </root>
    </mxGraphModel>
  </diagram>
</mxfile>
